<?xml version="1.0" encoding="UTF-8" standalone="no"?><svg width="188" height="50" viewBox="0 0 188 50" fill="none" xmlns="http://www.w3.org/2000/svg">
<path d="M23.928 13.576C23.928 15.272 23.528 16.872 22.728 18.376C21.928 19.88 20.648 21.112 18.888 22.072C17.128 23 14.872 23.464 12.12 23.464H6.072V37H0.6V3.64H12.12C14.68 3.64 16.84 4.088 18.6 4.984C20.392 5.848 21.72 7.032 22.584 8.536C23.48 10.04 23.928 11.72 23.928 13.576ZM12.12 19C14.2 19 15.752 18.536 16.776 17.608C17.8 16.648 18.312 15.304 18.312 13.576C18.312 9.928 16.248 8.104 12.12 8.104H6.072V19H12.12ZM34.6189 14.392C35.4189 13.048 36.4749 12.008 37.7869 11.272C39.1309 10.504 40.7149 10.12 42.5389 10.12V15.784H41.1469C39.0029 15.784 37.3709 16.328 36.2509 17.416C35.1629 18.504 34.6189 20.392 34.6189 23.08V37H29.1469V10.552H34.6189V14.392ZM71.8088 23.128C71.8088 24.12 71.7448 25.016 71.6168 25.816H51.4088C51.5688 27.928 52.3528 29.624 53.7608 30.904C55.1688 32.184 56.8968 32.824 58.9448 32.824C61.8888 32.824 63.9688 31.592 65.1848 29.128H71.0887C70.2888 31.56 68.8328 33.56 66.7208 35.128C64.6408 36.664 62.0488 37.432 58.9448 37.432C56.4168 37.432 54.1448 36.872 52.1288 35.752C50.1448 34.6 48.5768 33 47.4248 30.952C46.3048 28.872 45.7448 26.472 45.7448 23.752C45.7448 21.032 46.2888 18.648 47.3768 16.6C48.4968 14.52 50.0488 12.92 52.0328 11.8C54.0488 10.68 56.3528 10.12 58.9448 10.12C61.4408 10.12 63.6648 10.664 65.6168 11.752C67.5688 12.84 69.0888 14.376 70.1768 16.36C71.2648 18.312 71.8088 20.568 71.8088 23.128ZM66.0968 21.4C66.0648 19.384 65.3448 17.768 63.9368 16.552C62.5288 15.336 60.7848 14.728 58.7048 14.728C56.8168 14.728 55.2008 15.336 53.8568 16.552C52.5128 17.736 51.7128 19.352 51.4568 21.4H66.0968ZM75.3698 23.656C75.3698 21 75.9138 18.648 77.0018 16.6C78.1218 14.552 79.6258 12.968 81.5138 11.848C83.4338 10.696 85.5618 10.12 87.8978 10.12C89.6258 10.12 91.3218 10.504 92.9858 11.272C94.6818 12.008 96.0258 13 97.0178 14.248V1.48H102.538V37H97.0178V33.016C96.1218 34.296 94.8738 35.352 93.2738 36.184C91.7058 37.016 89.8978 37.432 87.8498 37.432C85.5458 37.432 83.4338 36.856 81.5138 35.704C79.6258 34.52 78.1218 32.888 77.0018 30.808C75.9138 28.696 75.3698 26.312 75.3698 23.656ZM97.0178 23.752C97.0178 21.928 96.6338 20.344 95.8658 19C95.1298 17.656 94.1538 16.632 92.9378 15.928C91.7218 15.224 90.4098 14.872 89.0018 14.872C87.5938 14.872 86.2818 15.224 85.0658 15.928C83.8498 16.6 82.8578 17.608 82.0898 18.952C81.3538 20.264 80.9858 21.832 80.9858 23.656C80.9858 25.48 81.3538 27.08 82.0898 28.456C82.8578 29.832 83.8498 30.888 85.0658 31.624C86.3138 32.328 87.6258 32.68 89.0018 32.68C90.4098 32.68 91.7218 32.328 92.9378 31.624C94.1538 30.92 95.1298 29.896 95.8658 28.552C96.6338 27.176 97.0178 25.576 97.0178 23.752ZM112.509 7.048C111.517 7.048 110.685 6.712 110.013 6.04C109.341 5.368 109.005 4.536 109.005 3.544C109.005 2.552 109.341 1.72 110.013 1.048C110.685 0.375998 111.517 0.0399981 112.509 0.0399981C113.469 0.0399981 114.285 0.375998 114.957 1.048C115.629 1.72 115.965 2.552 115.965 3.544C115.965 4.536 115.629 5.368 114.957 6.04C114.285 6.712 113.469 7.048 112.509 7.048ZM115.197 10.552V37H109.725V10.552H115.197ZM120.557 23.752C120.557 21.032 121.101 18.648 122.189 16.6C123.309 14.52 124.845 12.92 126.797 11.8C128.749 10.68 130.989 10.12 133.517 10.12C136.717 10.12 139.357 10.888 141.437 12.424C143.549 13.928 144.973 16.088 145.709 18.904H139.805C139.325 17.592 138.557 16.568 137.501 15.832C136.445 15.096 135.117 14.728 133.517 14.728C131.277 14.728 129.485 15.528 128.141 17.128C126.829 18.696 126.173 20.904 126.173 23.752C126.173 26.6 126.829 28.824 128.141 30.424C129.485 32.024 131.277 32.824 133.517 32.824C136.685 32.824 138.781 31.432 139.805 28.648H145.709C144.941 31.336 143.501 33.48 141.389 35.08C139.277 36.648 136.653 37.432 133.517 37.432C130.989 37.432 128.749 36.872 126.797 35.752C124.845 34.6 123.309 33 122.189 30.952C121.101 28.872 120.557 26.472 120.557 23.752Z" fill="white"/>
<path d="M156.635 1.48V37H151.163V1.48H156.635ZM187.627 10.552L171.403 49.432H165.739L171.115 36.568L160.699 10.552H166.795L174.235 30.712L181.963 10.552H187.627Z" fill="#712EFF"/>
</svg>
